<svg width="100" height="100" viewBox="0 0 100 100" fill="none" xmlns="http://www.w3.org/2000/svg">
<g clip-path="url(#clip0_715_66)">
<path d="M50 100C48.705 100 47.463 99.4856 46.5473 98.5699C45.6316 97.6542 45.1172 96.4122 45.1172 95.1172V4.88281C45.1172 3.58781 45.6316 2.34585 46.5473 1.43014C47.463 0.514438 48.705 0 50 0C51.295 0 52.537 0.514438 53.4527 1.43014C54.3684 2.34585 54.8828 3.58781 54.8828 4.88281V95.1172C54.8828 96.4122 54.3684 97.6542 53.4527 98.5699C52.537 99.4856 51.295 100 50 100Z" fill="white"/>
<path d="M95.1172 54.8828H4.88281C3.58781 54.8828 2.34585 54.3684 1.43014 53.4527C0.514438 52.537 0 51.295 0 50C0 48.705 0.514438 47.463 1.43014 46.5473C2.34585 45.6316 3.58781 45.1172 4.88281 45.1172H95.1172C96.4122 45.1172 97.6542 45.6316 98.5699 46.5473C99.4856 47.463 100 48.705 100 50C100 51.295 99.4856 52.537 98.5699 53.4527C97.6542 54.3684 96.4122 54.8828 95.1172 54.8828Z" fill="white"/>
</g>
<defs>
<clipPath id="clip0_715_66">
<rect width="100" height="100" fill="white"/>
</clipPath>
</defs>
</svg>
