<svg width="100" height="100" viewBox="0 0 100 100" fill="none" xmlns="http://www.w3.org/2000/svg">
<path d="M50 0.5C77.2938 0.5 99.5 22.7062 99.5 50C99.4998 77.2937 77.2937 99.499 50 99.499C22.7061 99.4988 0.50018 77.2936 0.5 50C0.5 22.7063 22.706 0.500176 50 0.5ZM50 7.69629C26.6733 7.69646 7.69629 26.6736 7.69629 50C7.69647 73.3266 26.6735 92.3026 50 92.3027C73.3264 92.3027 92.3035 73.3267 92.3037 50C92.3037 26.6735 73.3265 7.69629 50 7.69629Z" fill="white" stroke="white"/>
<path d="M71.984 31.1628C73.3891 29.7581 75.6676 29.7575 77.0729 31.1628C78.4778 32.5681 78.4775 34.8463 77.0729 36.2517L44.4869 68.8367C43.7841 69.5392 42.8645 69.8913 41.943 69.8914H41.942C41.4697 69.8919 41.0014 69.7987 40.5651 69.6179C40.1288 69.4372 39.7326 69.1719 39.399 68.8376L22.9274 52.366C21.5224 50.9606 21.5223 48.6824 22.9274 47.2771C24.3327 45.8721 26.6108 45.8722 28.0162 47.2771L41.943 61.2039L71.984 31.1628Z" fill="white" stroke="white"/>
</svg>
