<svg width="100" height="100" viewBox="0 0 100 100" fill="none" xmlns="http://www.w3.org/2000/svg">
<path d="M96.0689 30.5365C90.9911 18.5501 81.4499 9.00894 69.4635 3.93108C63.3025 1.33656 56.685 0 50 0C43.315 0 36.6975 1.33656 30.5365 3.93108C18.5501 9.00894 9.00894 18.5501 3.93108 30.5365C1.33656 36.6975 0 43.315 0 50C0 56.685 1.33656 63.3025 3.93108 69.4635C9.00894 81.4499 18.5501 90.9911 30.5365 96.0689C36.6975 98.6634 43.315 100 50 100C56.685 100 63.3025 98.6634 69.4635 96.0689C81.4499 90.9911 90.9911 81.4499 96.0689 69.4635C98.6634 63.3025 100 56.685 100 50C100 43.315 98.6634 36.6975 96.0689 30.5365ZM50 90.9085C27.4428 90.9085 9.09152 72.5572 9.09152 50C9.09152 27.4428 27.4428 9.09152 50 9.09152C72.5572 9.09152 90.9085 27.4428 90.9085 50C90.9085 72.5572 72.5572 90.9085 50 90.9085Z" fill="white"/>
<path d="M54.5447 48.1166V22.7278C54.5447 21.5225 54.0659 20.3665 53.2136 19.5142C52.3613 18.6619 51.2053 18.1831 50 18.1831C48.7947 18.1831 47.6387 18.6619 46.7864 19.5142C45.9341 20.3665 45.4553 21.5225 45.4553 22.7278V50.0001C45.4549 50.597 45.5723 51.188 45.8008 51.7394C46.0293 52.2907 46.3645 52.7916 46.787 53.2131L60.4231 66.8493C60.8447 67.2736 61.3459 67.6105 61.8979 67.8407C62.45 68.0709 63.042 68.1899 63.6401 68.1908C64.2382 68.1917 64.8307 68.0746 65.3834 67.8461C65.9361 67.6176 66.4383 67.2822 66.8612 66.8592C67.2841 66.4362 67.6193 65.9339 67.8476 65.381C68.0759 64.8282 68.1929 64.2358 68.1918 63.6376C68.1907 63.0395 68.0715 62.4475 67.8411 61.8956C67.6107 61.3436 67.2736 60.8425 66.8492 60.4211L54.5447 48.1166Z" fill="white"/>
</svg>
