<svg width="100" height="71" viewBox="0 0 100 71" fill="none" xmlns="http://www.w3.org/2000/svg">
<path d="M90.4594 70.5053H16.3095C13.6738 70.5053 11.5291 68.3605 11.5291 65.7248V37.7323C11.5291 37.1078 12.0358 36.6011 12.6602 36.6011C13.2847 36.6011 13.7914 37.1078 13.7914 37.7323V65.7248C13.7914 67.1139 14.9204 68.2429 16.3095 68.2429H90.4594C91.8485 68.2429 92.9774 67.1139 92.9774 65.7248V19.6218C92.9774 18.2327 91.8485 17.1038 90.4594 17.1038H72.2494C71.625 17.1038 71.1182 16.597 71.1182 15.9726C71.1182 15.3482 71.625 14.8414 72.2494 14.8414H90.4594C93.0951 14.8414 95.2398 16.9861 95.2398 19.6218V65.7248C95.2398 68.3605 93.0951 70.5053 90.4594 70.5053ZM65.6387 17.1015H35.705C35.0806 17.1015 34.5738 16.5947 34.5738 15.9703C34.5738 15.3459 35.0806 14.8391 35.705 14.8391H65.6387C66.2631 14.8391 66.7699 15.3459 66.7699 15.9703C66.7699 16.5947 66.2631 17.1015 65.6387 17.1015Z" fill="white"/>
<path d="M18.805 39.963C8.43646 39.963 0 31.5266 0 21.158C0 10.7895 8.43646 2.35303 18.805 2.35303C29.1736 2.35303 37.61 10.7895 37.61 21.158C37.61 31.5266 29.1736 39.963 18.805 39.963ZM18.805 4.61542C9.68304 4.61542 2.26239 12.0361 2.26239 21.158C2.26239 30.28 9.68304 37.7006 18.805 37.7006C27.927 37.7006 35.3476 30.28 35.3476 21.158C35.3476 12.0361 27.927 4.61542 18.805 4.61542Z" fill="white"/>
<path d="M18.805 29.5899C14.1558 29.5899 10.373 25.8072 10.373 21.158C10.373 16.5088 14.1558 12.7261 18.805 12.7261C23.4542 12.7261 27.2369 16.5088 27.2369 21.158C27.2369 25.8072 23.4542 29.5899 18.805 29.5899ZM18.805 14.9885C15.4046 14.9885 12.6354 17.7554 12.6354 21.158C12.6354 24.5606 15.4023 27.3276 18.805 27.3276C22.2076 27.3276 24.9745 24.5584 24.9745 21.158C24.9745 17.7576 22.2076 14.9885 18.805 14.9885Z" fill="white"/>
<path d="M18.8049 14.9885C18.1805 14.9885 17.6737 14.4817 17.6737 13.8573V3.48422C17.6737 2.8598 18.1805 2.35303 18.8049 2.35303C19.4293 2.35303 19.9361 2.8598 19.9361 3.48422V13.8573C19.9361 14.484 19.4293 14.9885 18.8049 14.9885ZM34.11 31.1261C33.9177 31.1261 33.7231 31.0764 33.5444 30.9746L24.5604 25.7869C24.0197 25.4747 23.8342 24.7824 24.1464 24.2417C24.4586 23.701 25.1509 23.5154 25.6916 23.8277L34.6756 29.0153C34.9353 29.1654 35.1248 29.4125 35.2024 29.7022C35.2801 29.992 35.2395 30.3007 35.0896 30.5605C34.8815 30.9225 34.5014 31.1261 34.11 31.1261ZM3.50209 31.1261C3.1107 31.1261 2.73062 30.9225 2.52248 30.5605C2.3726 30.3007 2.33202 29.992 2.40965 29.7022C2.48729 29.4125 2.67678 29.1654 2.9365 29.0153L11.9205 23.8277C12.4612 23.5154 13.1535 23.701 13.4657 24.2417C13.7779 24.7824 13.5924 25.4747 13.0517 25.7869L4.06769 30.9746C3.8867 31.0764 3.69213 31.1261 3.50209 31.1261ZM25.393 66.4036H17.6443C17.0199 66.4036 16.5131 65.8968 16.5131 65.2724V46.8701C16.5131 45.4742 17.6488 44.3408 19.0425 44.3408H23.9926C25.3885 44.3408 26.5219 45.4765 26.5219 46.8701V65.2724C26.5242 65.8968 26.0174 66.4036 25.393 66.4036ZM18.7755 64.1412H24.2618V46.8701C24.2618 46.7253 24.1396 46.6032 23.9948 46.6032H19.0447C18.8999 46.6032 18.7778 46.7253 18.7778 46.8701V64.1412H18.7755ZM36.8 66.4036H29.0513C28.4269 66.4036 27.9201 65.8968 27.9201 65.2724V43.2118C27.9201 41.8159 29.0558 40.6825 30.4494 40.6825H35.3996C36.7955 40.6825 37.9289 41.8182 37.9289 43.2118V65.2724C37.9312 65.8968 37.4244 66.4036 36.8 66.4036ZM30.1825 64.1412H35.6688V43.2118C35.6688 43.067 35.5466 42.9449 35.4018 42.9449H30.4517C30.3069 42.9449 30.1847 43.067 30.1847 43.2118V64.1412H30.1825ZM48.207 66.4036H40.4583C39.8338 66.4036 39.3271 65.8968 39.3271 65.2724V38.8771C39.3271 37.4812 40.4628 36.3477 41.8564 36.3477H46.8065C48.2024 36.3477 49.3359 37.4835 49.3359 38.8771V65.2724C49.3382 65.8968 48.8314 66.4036 48.207 66.4036ZM41.5895 64.1412H47.0758V38.8771C47.0758 38.7323 46.9536 38.6101 46.8088 38.6101H41.8587C41.7139 38.6101 41.5917 38.7323 41.5917 38.8771V64.1412H41.5895ZM89.9594 64.1276H79.4144C78.79 64.1276 78.2832 63.6209 78.2832 62.9964C78.2832 62.372 78.79 61.8653 79.4144 61.8653H89.9594C90.5838 61.8653 91.0906 62.372 91.0906 62.9964C91.0906 63.6209 90.5861 64.1276 89.9594 64.1276ZM72.5277 64.1276H53.5892C52.9648 64.1276 52.458 63.6209 52.458 62.9964C52.458 62.372 52.9648 61.8653 53.5892 61.8653H72.5277C73.1521 61.8653 73.6589 62.372 73.6589 62.9964C73.6589 63.6209 73.1521 64.1276 72.5277 64.1276ZM89.9594 56.379H68.6522C68.0278 56.379 67.521 55.8722 67.521 55.2478C67.521 54.6233 68.0278 54.1166 68.6522 54.1166H89.9594C90.5838 54.1166 91.0906 54.6233 91.0906 55.2478C91.0906 55.8722 90.5861 56.379 89.9594 56.379ZM59.6139 56.379H53.5869C52.9625 56.379 52.4557 55.8722 52.4557 55.2478C52.4557 54.6233 52.9625 54.1166 53.5869 54.1166H59.6139C60.2384 54.1166 60.7451 54.6233 60.7451 55.2478C60.7451 55.8722 60.2384 56.379 59.6139 56.379ZM89.9594 48.6303H81.1361C80.5117 48.6303 80.0049 48.1235 80.0049 47.4991C80.0049 46.8746 80.5117 46.3679 81.1361 46.3679H89.9594C90.5838 46.3679 91.0906 46.8746 91.0906 47.4991C91.0906 48.1235 90.5861 48.6303 89.9594 48.6303ZM72.0978 48.6303H53.5892C52.9648 48.6303 52.458 48.1235 52.458 47.4991C52.458 46.8746 52.9648 46.3679 53.5892 46.3679H72.0978C72.7222 46.3679 73.229 46.8746 73.229 47.4991C73.229 48.1235 72.7222 48.6303 72.0978 48.6303ZM89.9594 40.8838H69.7291C69.1047 40.8838 68.5979 40.3771 68.5979 39.7526C68.5979 39.1282 69.1047 38.6214 69.7291 38.6214H89.9594C90.5838 38.6214 91.0906 39.1282 91.0906 39.7526C91.0906 40.3771 90.5861 40.8838 89.9594 40.8838ZM60.6908 40.8838H53.5892C52.9648 40.8838 52.458 40.3771 52.458 39.7526C52.458 39.1282 52.9648 38.6214 53.5892 38.6214H60.6908C61.3153 38.6214 61.822 39.1282 61.822 39.7526C61.822 40.3771 61.3153 40.8838 60.6908 40.8838ZM58.1208 28.0425C57.8402 28.0425 57.5597 27.9384 57.3425 27.7303C56.89 27.3004 56.8719 26.5832 57.3018 26.1308L65.8287 17.1559C66.2586 16.7034 66.9758 16.6853 67.4282 17.1151C67.8807 17.545 67.8988 18.2622 67.469 18.7146L58.942 27.6896C58.8363 27.8012 58.709 27.89 58.5678 27.9507C58.4266 28.0114 58.2745 28.0426 58.1208 28.0425ZM78.8149 23.5335C78.5388 23.5335 78.2628 23.434 78.0434 23.2304C77.824 23.0256 77.6949 22.7422 77.6843 22.4423C77.6737 22.1424 77.7825 21.8506 77.9868 21.6309L92.4277 6.13801C92.853 5.68101 93.5679 5.65612 94.0272 6.08145C94.2465 6.2862 94.3757 6.56963 94.3863 6.86951C94.3969 7.16939 94.2881 7.46123 94.0838 7.68096L79.6429 23.1738C79.5368 23.2872 79.4086 23.3776 79.2662 23.4395C79.1237 23.5014 78.9701 23.5334 78.8149 23.5335ZM74.4349 23.3865C74.1068 23.3865 73.781 23.244 73.5571 22.9702L70.1748 18.8187C69.7811 18.3346 69.8535 17.6219 70.3377 17.2283C70.8218 16.8346 71.5345 16.907 71.9281 17.3912L75.3104 21.5426C75.4995 21.7752 75.5886 22.0734 75.5581 22.3716C75.5275 22.6698 75.3799 22.9437 75.1475 23.1331C74.9461 23.2968 74.6945 23.3863 74.4349 23.3865Z" fill="white"/>
<path d="M55.8222 33.7979C53.3585 33.7979 51.354 31.7934 51.354 29.3297C51.354 26.8659 53.3585 24.8614 55.8222 24.8614C58.286 24.8614 60.2904 26.8659 60.2904 29.3297C60.2904 31.7934 58.286 33.7979 55.8222 33.7979ZM55.8222 27.1261C54.6073 27.1261 53.6164 28.1148 53.6164 29.3319C53.6164 30.5491 54.6051 31.5378 55.8222 31.5378C57.0394 31.5378 58.0281 30.5491 58.0281 29.3319C58.0281 28.1148 57.0394 27.1261 55.8222 27.1261ZM68.9441 19.986C66.4804 19.986 64.4759 17.9815 64.4759 15.5177C64.4759 13.054 66.4804 11.0495 68.9441 11.0495C71.4078 11.0495 73.4123 13.054 73.4123 15.5177C73.4123 17.9815 71.4078 19.986 68.9441 19.986ZM68.9441 13.3142C67.7292 13.3142 66.7383 14.3028 66.7383 15.52C66.7383 16.7372 67.7269 17.7258 68.9441 17.7258C70.159 17.7258 71.1499 16.7372 71.1499 15.52C71.1499 14.3028 70.159 13.3142 68.9441 13.3142ZM76.5412 29.3093C74.0775 29.3093 72.073 27.3048 72.073 24.8411C72.073 22.3773 74.0775 20.3728 76.5412 20.3728C79.005 20.3728 81.0094 22.3773 81.0094 24.8411C81.0094 27.3048 79.005 29.3093 76.5412 29.3093ZM76.5412 22.6375C75.3263 22.6375 74.3354 23.6262 74.3354 24.8433C74.3354 26.0605 75.324 27.0492 76.5412 27.0492C77.7584 27.0492 78.747 26.0605 78.747 24.8433C78.747 23.6262 77.7561 22.6375 76.5412 22.6375ZM95.5317 8.93645C93.068 8.93645 91.0635 6.93197 91.0635 4.46822C91.0635 2.00448 93.068 0 95.5317 0C97.9955 0 100 2.00448 100 4.46822C100 6.93197 97.9955 8.93645 95.5317 8.93645ZM95.5317 2.26466C94.3168 2.26466 93.3259 3.25332 93.3259 4.47049C93.3259 5.68765 94.3146 6.67632 95.5317 6.67632C96.7466 6.67632 97.7376 5.68765 97.7376 4.47049C97.7376 3.25332 96.7466 2.26466 95.5317 2.26466Z" fill="white"/>
</svg>
