<svg width="100" height="100" viewBox="0 0 100 100" fill="none" xmlns="http://www.w3.org/2000/svg">
<path d="M42.1874 92.1875C41.3586 92.1875 40.5638 91.8583 39.9777 91.2722C39.3917 90.6862 39.0624 89.8913 39.0624 89.0625V59.0156L10.0937 27.1562C8.95333 25.8996 8.20224 24.339 7.93157 22.6638C7.6609 20.9886 7.88228 19.2709 8.56886 17.719C9.25543 16.1672 10.3777 14.848 11.7994 13.9216C13.2211 12.9952 14.8811 12.5013 16.5781 12.5H83.4218C85.1187 12.5013 86.7788 12.9952 88.2005 13.9216C89.6222 14.848 90.7444 16.1672 91.431 17.719C92.1176 19.2709 92.339 20.9886 92.0683 22.6638C91.7976 24.339 91.0465 25.8996 89.9062 27.1562L60.9374 59.0156V76.5625C60.9371 77.0306 60.8317 77.4927 60.6289 77.9146C60.426 78.3365 60.131 78.7074 59.7656 79L44.1406 91.5C43.5866 91.9445 42.8977 92.1869 42.1874 92.1875ZM16.5781 18.75C16.0918 18.7512 15.6163 18.8933 15.2091 19.1592C14.8019 19.425 14.4805 19.8032 14.2838 20.2479C14.0871 20.6926 14.0234 21.1848 14.1006 21.6649C14.1778 22.145 14.3925 22.5925 14.7187 22.9531L44.4999 55.7656C45.0102 56.3267 45.299 57.0542 45.3124 57.8125V82.5625L54.6874 75V57.8125C54.6856 57.0326 54.9754 56.2802 55.4999 55.7031L85.2812 22.8906C85.588 22.5284 85.786 22.0867 85.8524 21.6167C85.9187 21.1466 85.8508 20.6674 85.6563 20.2344C85.4619 19.8013 85.1488 19.4322 84.7534 19.1695C84.358 18.9068 83.8964 18.7614 83.4218 18.75H16.5781Z" fill="white"/>
</svg>
