<svg width="100" height="100" viewBox="0 0 100 100" fill="none" xmlns="http://www.w3.org/2000/svg">
<path d="M56.2498 17.4167C55.6973 17.4167 55.1674 17.1972 54.7767 16.8065C54.386 16.4158 54.1665 15.8859 54.1665 15.3333V8.33333C54.1665 6.0375 52.2957 4.16667 49.9998 4.16667C47.704 4.16667 45.8332 6.0375 45.8332 8.33333V15.3333C45.8332 15.8859 45.6137 16.4158 45.223 16.8065C44.8323 17.1972 44.3024 17.4167 43.7498 17.4167C43.1973 17.4167 42.6674 17.1972 42.2767 16.8065C41.886 16.4158 41.6665 15.8859 41.6665 15.3333V8.33333C41.6665 3.7375 45.404 0 49.9998 0C54.5957 0 58.3332 3.7375 58.3332 8.33333V15.3333C58.3332 15.8859 58.1137 16.4158 57.723 16.8065C57.3323 17.1972 56.8024 17.4167 56.2498 17.4167ZM49.9998 100C41.9582 100 35.4165 93.4583 35.4165 85.4167C35.4165 84.8641 35.636 84.3342 36.0267 83.9435C36.4174 83.5528 36.9473 83.3333 37.4998 83.3333C38.0524 83.3333 38.5823 83.5528 38.973 83.9435C39.3637 84.3342 39.5832 84.8641 39.5832 85.4167C39.5832 91.1583 44.2582 95.8333 49.9998 95.8333C55.7415 95.8333 60.4165 91.1583 60.4165 85.4167C60.4165 84.8641 60.636 84.3342 61.0267 83.9435C61.4174 83.5528 61.9473 83.3333 62.4998 83.3333C63.0524 83.3333 63.5823 83.5528 63.973 83.9435C64.3637 84.3342 64.5832 84.8641 64.5832 85.4167C64.5832 93.4583 58.0415 100 49.9998 100Z" fill="white"/>
<path d="M85.4166 87.5H14.5833C13.3077 87.4955 12.064 87.1014 11.0187 86.3704C9.9734 85.6394 9.17641 84.6064 8.7345 83.4099C8.29259 82.2133 8.22686 80.9103 8.54611 79.6754C8.86536 78.4404 9.55434 77.3325 10.5208 76.5C13.7528 73.7794 16.3505 70.3848 18.132 66.5542C19.9134 62.7235 20.8354 58.5496 20.8333 54.325V41.6667C20.8333 25.5833 33.9166 12.5 49.9999 12.5C66.0833 12.5 79.1666 25.5833 79.1666 41.6667V54.325C79.1666 62.8792 82.9124 70.95 89.4458 76.4708C90.4234 77.2978 91.1237 78.405 91.4519 79.6427C91.7802 80.8804 91.7206 82.1891 91.2812 83.3919C90.8418 84.5947 90.0438 85.6336 88.995 86.3683C87.9462 87.1029 86.6971 87.498 85.4166 87.5ZM49.9999 16.6667C36.2124 16.6667 24.9999 27.8792 24.9999 41.6667V54.325C25.0046 59.1484 23.9549 63.9145 21.9246 68.2897C19.8942 72.665 16.9322 76.5436 13.2458 79.6542C12.9184 79.9289 12.6835 80.2977 12.5728 80.7105C12.4621 81.1233 12.481 81.5601 12.6271 81.9618C12.7731 82.3634 13.0391 82.7105 13.389 82.9558C13.739 83.2012 14.1559 83.333 14.5833 83.3333H85.4166C85.8425 83.3334 86.2582 83.2029 86.6076 82.9594C86.9571 82.716 87.2235 82.3713 87.3711 81.9718C87.5186 81.5722 87.5402 81.1371 87.4329 80.725C87.3255 80.3128 87.0945 79.9435 86.7708 79.6667C83.081 76.5552 80.1158 72.6751 78.0826 68.2977C76.0493 63.9203 74.9973 59.1515 74.9999 54.325V41.6667C74.9999 27.8792 63.7874 16.6667 49.9999 16.6667Z" fill="white"/>
</svg>
