<svg width="100" height="100" viewBox="0 0 100 100" fill="none" xmlns="http://www.w3.org/2000/svg">
<path d="M87.9844 90.625H13.6094V7.8125C13.6094 7.3981 13.4448 7.00067 13.1517 6.70765C12.8587 6.41462 12.4613 6.25 12.0469 6.25C11.6325 6.25 11.235 6.41462 10.942 6.70765C10.649 7.00067 10.4844 7.3981 10.4844 7.8125V92.1875C10.4844 92.6019 10.649 92.9993 10.942 93.2924C11.235 93.5854 11.6325 93.75 12.0469 93.75H87.9844C88.3988 93.75 88.7962 93.5854 89.0892 93.2924C89.3822 92.9993 89.5469 92.6019 89.5469 92.1875C89.5469 91.7731 89.3822 91.3757 89.0892 91.0826C88.7962 90.7896 88.3988 90.625 87.9844 90.625Z" fill="white"/>
<path d="M20.4844 31.5625C20.07 31.5625 19.6725 31.7271 19.3795 32.0201C19.0865 32.3132 18.9219 32.7106 18.9219 33.125C18.9219 33.5394 19.0865 33.9368 19.3795 34.2299C19.6725 34.5229 20.07 34.6875 20.4844 34.6875H79.0078C79.4222 34.6875 79.8196 34.5229 80.1127 34.2299C80.4057 33.9368 80.5703 33.5394 80.5703 33.125V16.25C80.5703 15.8356 80.4057 15.4382 80.1127 15.1451C79.8196 14.8521 79.4222 14.6875 79.0078 14.6875H20.4844C20.07 14.6875 19.6725 14.8521 19.3795 15.1451C19.0865 15.4382 18.9219 15.8356 18.9219 16.25C18.9219 16.6644 19.0865 17.0618 19.3795 17.3549C19.6725 17.6479 20.07 17.8125 20.4844 17.8125H77.4453V31.5625H20.4844ZM20.4844 56.875C20.07 56.875 19.6725 57.0396 19.3795 57.3326C19.0865 57.6257 18.9219 58.0231 18.9219 58.4375C18.9219 58.8519 19.0865 59.2493 19.3795 59.5424C19.6725 59.8354 20.07 60 20.4844 60H61.8234C62.2378 60 62.6353 59.8354 62.9283 59.5424C63.2213 59.2493 63.3859 58.8519 63.3859 58.4375V41.5625C63.3859 41.1481 63.2213 40.7507 62.9283 40.4576C62.6353 40.1646 62.2378 40 61.8234 40H20.4844C20.07 40 19.6725 40.1646 19.3795 40.4576C19.0865 40.7507 18.9219 41.1481 18.9219 41.5625C18.9219 41.9769 19.0865 42.3743 19.3795 42.6674C19.6725 42.9604 20.07 43.125 20.4844 43.125H60.2609V56.875H20.4844ZM20.4844 82.1875C20.07 82.1875 19.6725 82.3521 19.3795 82.6451C19.0865 82.9382 18.9219 83.3356 18.9219 83.75C18.9219 84.1644 19.0865 84.5618 19.3795 84.8548C19.6725 85.1479 20.07 85.3125 20.4844 85.3125H47.5672C47.9816 85.3125 48.379 85.1479 48.672 84.8548C48.9651 84.5618 49.1297 84.1644 49.1297 83.75V66.875C49.1297 66.4606 48.9651 66.0632 48.672 65.7701C48.379 65.4771 47.9816 65.3125 47.5672 65.3125H20.4844C20.07 65.3125 19.6725 65.4771 19.3795 65.7701C19.0865 66.0632 18.9219 66.4606 18.9219 66.875C18.9219 67.2894 19.0865 67.6868 19.3795 67.9799C19.6725 68.2729 20.07 68.4375 20.4844 68.4375H46.0047V82.1875H20.4844Z" fill="white"/>
</svg>
