<svg width="100" height="64" viewBox="0 0 100 64" fill="none" xmlns="http://www.w3.org/2000/svg">
<path d="M99.3645 29.9231C98.4712 28.7011 77.1854 0 49.9995 0C22.8137 0 1.52694 28.7011 0.634553 29.922C0.222206 30.4869 0 31.1682 0 31.8676C0 32.567 0.222206 33.2483 0.634553 33.8132C1.52694 35.0353 22.8137 63.7363 49.9995 63.7363C77.1854 63.7363 98.4712 35.0351 99.3645 33.8142C99.7774 33.2495 100 32.5682 100 31.8687C100 31.1691 99.7774 30.4878 99.3645 29.9231ZM49.9995 57.143C29.9743 57.143 12.6303 38.0935 7.4961 31.8659C12.6237 25.6329 29.9313 6.59338 49.9995 6.59338C70.0238 6.59338 87.3667 25.6395 92.503 31.8704C87.3754 38.1032 70.0678 57.143 49.9995 57.143Z" fill="white"/>
<path d="M50.0001 12.0874C39.0934 12.0874 30.2197 20.9611 30.2197 31.8677C30.2197 42.7744 39.0934 51.6481 50.0001 51.6481C60.9067 51.6481 69.7804 42.7744 69.7804 31.8677C69.7804 20.9611 60.9067 12.0874 50.0001 12.0874ZM50.0001 45.0545C42.7286 45.0545 36.8133 39.139 36.8133 31.8677C36.8133 24.5964 42.7287 18.681 50.0001 18.681C57.2714 18.681 63.1868 24.5964 63.1868 31.8677C63.1868 39.139 57.2716 45.0545 50.0001 45.0545Z" fill="white"/>
</svg>
