<svg width="98" height="100" viewBox="0 0 98 100" fill="none" xmlns="http://www.w3.org/2000/svg">
<path d="M96.6174 96.8036L68.5635 67.6283C75.7191 60.452 80.1521 50.5588 80.1521 39.6481C80.1521 17.785 62.3671 0 40.504 0C18.641 0 0.855957 17.785 0.855957 39.6481C0.855957 61.5112 18.641 79.2961 40.504 79.2961C50.1008 79.2961 58.9083 75.8656 65.7731 70.1733L93.8949 99.4204C94.0664 99.5996 94.2717 99.7432 94.4989 99.8429C94.7261 99.9426 94.9707 99.9964 95.2187 100.001C95.4668 100.006 95.7133 99.9621 95.9443 99.8715C96.1752 99.7809 96.386 99.6455 96.5645 99.4732C96.7433 99.3014 96.8865 99.0961 96.9859 98.8689C97.0853 98.6418 97.139 98.3973 97.1439 98.1494C97.1488 97.9015 97.1048 97.655 97.0145 97.4241C96.9241 97.1932 96.7892 96.9824 96.6174 96.8036ZM40.504 75.5201C20.7234 75.5201 4.63196 59.4287 4.63196 39.6481C4.63196 19.8675 20.7234 3.77601 40.504 3.77601C60.2846 3.77601 76.3761 19.8675 76.3761 39.6481C76.3761 59.4287 60.2828 75.5201 40.504 75.5201Z" fill="#ABABAB"/>
</svg>
