<svg width="100" height="100" viewBox="0 0 100 100" fill="none" xmlns="http://www.w3.org/2000/svg">
<path d="M50 6.05005L12.5 19.6875V50C12.5 84.25 48.8906 93.5688 49.2562 93.6625L50 93.8407L50.7438 93.6625C51.1094 93.5688 87.5 84.25 87.5 50V19.6875L50 6.05005ZM81.25 50C81.25 77.1219 54.9688 85.9594 50.0125 87.3844C45.2313 85.9688 18.75 76.8876 18.75 50V24.0625L50 12.7L81.25 24.0625V50Z" fill="white"/>
<path d="M33.4593 47.7908L29.0405 52.2095L43.7499 66.9189L70.9593 39.7095L66.5405 35.2908L43.7499 58.0814L33.4593 47.7908Z" fill="white"/>
</svg>
