<svg width="100" height="184" viewBox="0 0 100 184" fill="none" xmlns="http://www.w3.org/2000/svg">
<path d="M8.33401 -8.20075e-05C9.42845 -0.0012126 10.5123 0.213914 11.5234 0.632925C12.5345 1.05194 13.4528 1.66657 14.2256 2.44154L97.5576 85.7735C98.3318 86.5469 98.9461 87.4653 99.3652 88.4762C99.7843 89.4871 100 90.5708 100 91.6651C100 92.7595 99.7843 93.8431 99.3652 94.854C98.9461 95.8649 98.3318 96.7833 97.5576 97.5567L14.2256 180.889C10.9694 184.145 5.69654 184.145 2.44243 180.889C-0.811686 177.632 -0.813769 172.36 2.44243 169.106L79.8829 91.6651L2.44243 14.2247C1.66814 13.4513 1.05389 12.5329 0.634799 11.522C0.215706 10.5111 -3.78847e-06 9.42747 -3.78847e-06 8.33312C-3.78847e-06 7.23877 0.215706 6.15515 0.634799 5.14422C1.05389 4.1333 1.66814 3.2149 2.44243 2.44154C3.21524 1.66657 4.13356 1.05194 5.14462 0.632925C6.15568 0.213914 7.23956 -0.0012126 8.33401 -8.20075e-05Z" fill="white"/>
</svg>
