<svg width="200" height="201" viewBox="0 0 200 201" fill="none" xmlns="http://www.w3.org/2000/svg">
<path fill-rule="evenodd" clip-rule="evenodd" d="M150.782 4.35338C134.046 1.18163 117.03 -0.263934 99.9994 0.0394961C82.9689 -0.263934 65.9523 1.18163 49.217 4.35338C38.1726 6.70756 28.0492 12.2174 20.0759 20.2141C12.1026 28.2107 6.62235 38.3502 4.30047 49.4014C-1.43349 83.1089 -1.43349 117.543 4.30047 151.25C6.62235 162.302 12.1026 172.441 20.0759 180.438C28.0492 188.434 38.1726 193.944 49.217 196.298C65.9522 199.471 82.9689 200.916 99.9994 200.612C117.03 200.916 134.047 199.471 150.782 196.298C161.826 193.944 171.95 188.434 179.923 180.438C187.896 172.441 193.376 162.302 195.698 151.25C201.434 117.543 201.434 83.1088 195.698 49.4014C193.376 38.3502 187.896 28.2107 179.923 20.2141C171.95 12.2174 161.826 6.70756 150.782 4.35338Z" fill="#1070CA"/>
<path d="M100.768 158.874C95.3033 158.109 89.9032 156.939 84.6118 155.376C75.1814 152.391 66.9105 146.551 60.9416 138.663C54.9727 130.776 51.6002 121.23 51.2899 111.343C50.1693 93.8088 51.0637 76.143 51.0637 58.209H100.768V158.874Z" fill="white"/>
<path d="M159.041 82.7764C159.036 88.5354 157.037 94.1149 153.383 98.5663C149.729 103.018 144.647 106.066 138.999 107.194C133.352 108.321 127.488 107.458 122.405 104.75C117.322 102.043 113.334 97.6585 111.118 92.3428C108.903 87.027 108.597 81.1081 110.252 75.5921C111.908 70.0762 115.422 65.3039 120.199 62.0867C124.975 58.8694 130.719 57.4057 136.452 57.9446C142.186 58.4834 147.556 60.9915 151.65 65.0423C153.992 67.3637 155.851 70.1261 157.12 73.17C158.388 76.2138 159.041 79.4788 159.041 82.7764Z" fill="white"/>
</svg>
