<svg width="100" height="100" viewBox="0 0 100 100" fill="none" xmlns="http://www.w3.org/2000/svg">
<path d="M97.6174 96.8036L69.5635 67.6283C76.7191 60.452 81.1521 50.5588 81.1521 39.6481C81.1521 17.785 63.3671 0 41.504 0C19.641 0 1.85596 17.785 1.85596 39.6481C1.85596 61.5112 19.641 79.2961 41.504 79.2961C51.1008 79.2961 59.9083 75.8656 66.7731 70.1733L94.8949 99.4204C95.0664 99.5996 95.2717 99.7432 95.4989 99.8429C95.7261 99.9426 95.9707 99.9964 96.2187 100.001C96.4668 100.006 96.7133 99.9621 96.9443 99.8715C97.1752 99.7809 97.386 99.6455 97.5645 99.4732C97.7433 99.3014 97.8865 99.0961 97.9859 98.8689C98.0853 98.6418 98.139 98.3973 98.1439 98.1494C98.1488 97.9015 98.1048 97.655 98.0145 97.4241C97.9241 97.1932 97.7892 96.9824 97.6174 96.8036ZM41.504 75.5201C21.7234 75.5201 5.63196 59.4287 5.63196 39.6481C5.63196 19.8675 21.7234 3.77601 41.504 3.77601C61.2846 3.77601 77.3761 19.8675 77.3761 39.6481C77.3761 59.4287 61.2828 75.5201 41.504 75.5201Z" fill="white"/>
</svg>
