<svg width="100" height="100" viewBox="0 0 100 100" fill="none" xmlns="http://www.w3.org/2000/svg">
<g clip-path="url(#clip0_722_73)">
<path d="M54.6667 100H45.3333C43.8074 99.9986 42.3348 99.4382 41.1939 98.4248C40.0531 97.4114 39.323 96.0151 39.1417 94.5L38.1458 86.6833C36.1782 86.0447 34.2639 85.2519 32.4208 84.3125L26.1958 89.15C24.9939 90.0948 23.4859 90.5636 21.9602 90.4667C20.4344 90.3699 18.9978 89.7142 17.925 88.625L11.3625 82.0625C10.2792 80.9907 9.62861 79.5576 9.53484 78.0366C9.44108 76.5156 9.91074 75.0134 10.8542 73.8167L15.6917 67.5875C14.7487 65.746 13.9559 63.8315 13.3208 61.8625L5.4875 60.8667C3.97427 60.6798 2.58144 59.9465 1.57089 58.8047C0.560351 57.663 0.00170617 56.1914 0 54.6667L0 45.3333C0 42.1792 2.3625 39.5167 5.5 39.1417L13.3167 38.1458C13.9553 36.1782 14.7481 34.2639 15.6875 32.4208L10.8542 26.1958C9.90695 24.9938 9.43708 23.4843 9.53474 21.957C9.63241 20.4298 10.2907 18.9924 11.3833 17.9208L17.9458 11.3583C19.0181 10.2759 20.4511 9.62584 21.9718 9.53209C23.4926 9.43834 24.9946 9.90745 26.1917 10.85L32.4167 15.6917C34.2609 14.7515 36.1766 13.9587 38.1458 13.3208L39.1417 5.4875C39.5167 2.3625 42.1792 0 45.3333 0H54.6667C57.8208 0 60.4833 2.3625 60.8583 5.5L61.8542 13.3167C63.8458 13.9625 65.7625 14.7583 67.5833 15.6875L73.8083 10.85C75.01 9.90396 76.5187 9.43479 78.045 9.53244C79.5713 9.63009 81.0078 10.2877 82.0792 11.3792L88.6417 17.9417C90.8792 20.1125 91.1042 23.6667 89.15 26.1875L84.3125 32.4167C85.2458 34.2375 86.0417 36.1542 86.6833 38.1417L94.5167 39.1375C96.0288 39.3244 97.4206 40.0572 98.4303 41.1982C99.4401 42.3392 99.9983 43.8097 100 45.3333V54.6667C100 57.8208 97.6375 60.4833 94.5 60.8583L86.6833 61.8542C86.0447 63.8218 85.2519 65.7361 84.3125 67.5792L89.15 73.8042C90.096 75.0059 90.5652 76.5145 90.4676 78.0408C90.3699 79.5671 89.7123 81.0036 88.6208 82.075L82.0583 88.6375C80.987 89.7216 79.5537 90.3728 78.0325 90.4666C76.5113 90.5604 75.0088 90.0901 73.8125 89.1458L67.5833 84.3083C65.7419 85.2513 63.8273 86.0441 61.8583 86.6792L60.8625 94.5125C60.6765 96.0254 59.9441 97.4181 58.8031 98.4288C57.662 99.4394 56.1909 99.9982 54.6667 100ZM32.2083 79.75C32.5542 79.75 32.9083 79.8375 33.225 80.0125C35.5634 81.3142 38.0435 82.3431 40.6167 83.0792C41.0078 83.1914 41.3575 83.4158 41.6226 83.7246C41.8877 84.0334 42.0566 84.413 42.1083 84.8167L43.275 93.9833C43.4 95.0292 44.3042 95.8333 45.3333 95.8333H54.6667C55.1718 95.8265 55.6576 95.6378 56.0349 95.3019C56.4122 94.9659 56.6557 94.5052 56.7208 94.0042L57.8917 84.8208C57.9434 84.4172 58.1123 84.0375 58.3774 83.7287C58.6425 83.42 58.9922 83.1956 59.3833 83.0833C61.9564 82.3473 64.4366 81.3184 66.775 80.0167C67.1319 79.8173 67.5396 79.7276 67.9472 79.7587C68.3548 79.7899 68.7442 79.9404 69.0667 80.1917L76.3583 85.8583C76.7511 86.1744 77.2465 86.3347 77.75 86.3086C78.2534 86.2825 78.7296 86.0717 79.0875 85.7167L85.6917 79.1125C86.0529 78.7547 86.2694 78.2762 86.2993 77.7686C86.3293 77.261 86.1708 76.7603 85.8542 76.3625L80.1875 69.0708C79.9368 68.7481 79.7865 68.3588 79.7554 67.9513C79.7243 67.5438 79.8137 67.1362 80.0125 66.7792C81.3142 64.4407 82.3431 61.9606 83.0792 59.3875C83.1914 58.9963 83.4158 58.6466 83.7246 58.3815C84.0334 58.1164 84.413 57.9476 84.8167 57.8958L93.9833 56.7292C94.4885 56.666 94.9538 56.4225 95.2937 56.0436C95.6336 55.6646 95.8252 55.1757 95.8333 54.6667V45.3333C95.8265 44.8282 95.6378 44.3424 95.3019 43.9651C94.9659 43.5878 94.5052 43.3443 94.0042 43.2792L84.8208 42.1083C84.4172 42.0566 84.0375 41.8877 83.7287 41.6226C83.42 41.3575 83.1956 41.0078 83.0833 40.6167C82.3473 38.0435 81.3184 35.5634 80.0167 33.225C79.8163 32.8684 79.7259 32.4605 79.7571 32.0527C79.7882 31.6448 79.9394 31.2553 80.1917 30.9333L85.8583 23.6417C86.1756 23.2505 86.337 22.7558 86.3116 22.2528C86.2862 21.7498 86.0758 21.2739 85.7208 20.9167L79.1167 14.3125C78.7603 13.9487 78.2814 13.7305 77.773 13.7005C77.2647 13.6704 76.7633 13.8307 76.3667 14.15L69.075 19.8167C68.7519 20.0682 68.3618 20.219 67.9535 20.2501C67.5451 20.2813 67.1367 20.1914 66.7792 19.9917C64.4413 18.6888 61.961 17.6598 59.3875 16.925C58.9963 16.8127 58.6466 16.5884 58.3815 16.2796C58.1164 15.9708 57.9476 15.5912 57.8958 15.1875L56.7292 6.02083C56.6669 5.51496 56.4238 5.04865 56.0448 4.70789C55.6658 4.36714 55.1763 4.17491 54.6667 4.16667H45.3333C44.8282 4.17348 44.3424 4.36217 43.9651 4.69815C43.5878 5.03412 43.3443 5.49484 43.2792 5.99583L42.1083 15.1792C42.0563 15.5832 41.8874 15.9632 41.6224 16.2726C41.3575 16.582 41.0079 16.8073 40.6167 16.9208C38.0433 17.6542 35.563 18.6818 33.225 19.9833C32.8679 20.1836 32.4597 20.2742 32.0513 20.2438C31.643 20.2135 31.2527 20.0634 30.9292 19.8125L23.6375 14.1458C23.2463 13.8286 22.7517 13.6672 22.2487 13.6926C21.7456 13.7179 21.2698 13.9283 20.9125 14.2833L14.3083 20.8917C13.9471 21.2494 13.7306 21.728 13.7006 22.2356C13.6707 22.7431 13.8292 23.2439 14.1458 23.6417L19.8125 30.9333C20.0632 31.256 20.2135 31.6454 20.2446 32.0528C20.2757 32.4603 20.1863 32.868 19.9875 33.225C18.6841 35.5626 17.655 38.0429 16.9208 40.6167C16.8086 41.0078 16.5842 41.3575 16.2754 41.6226C15.9666 41.8877 15.587 42.0566 15.1833 42.1083L6.01667 43.275C5.51155 43.3364 5.04579 43.5788 4.70565 43.9572C4.36551 44.3357 4.17403 44.8245 4.16667 45.3333V54.6667C4.16667 55.6958 4.97083 56.6 5.99583 56.7208L15.1792 57.8917C15.5828 57.9434 15.9625 58.1123 16.2712 58.3774C16.58 58.6425 16.8044 58.9922 16.9167 59.3833C17.6667 61.9917 18.7 64.4792 19.9833 66.775C20.1837 67.1316 20.2741 67.5395 20.2429 67.9473C20.2118 68.3552 20.0606 68.7447 19.8083 69.0667L14.1417 76.3583C13.8244 76.7495 13.663 77.2442 13.6884 77.7472C13.7138 78.2502 13.9242 78.7261 14.2792 79.0833L20.8833 85.6875C21.2406 86.0496 21.7193 86.2666 22.2271 86.2966C22.735 86.3266 23.2359 86.1675 23.6333 85.85L30.925 80.1833C31.2948 79.9041 31.745 79.7521 32.2083 79.75Z" fill="white"/>
<path d="M50.0001 70.8334C38.5126 70.8334 29.1667 61.4876 29.1667 50.0001C29.1667 38.5126 38.5126 29.1667 50.0001 29.1667C61.4876 29.1667 70.8334 38.5126 70.8334 50.0001C70.8334 61.4876 61.4876 70.8334 50.0001 70.8334ZM50.0001 33.3334C40.8084 33.3334 33.3334 40.8084 33.3334 50.0001C33.3334 59.1918 40.8084 66.6668 50.0001 66.6668C59.1918 66.6668 66.6668 59.1918 66.6668 50.0001C66.6668 40.8084 59.1918 33.3334 50.0001 33.3334Z" fill="white"/>
</g>
<defs>
<clipPath id="clip0_722_73">
<rect width="100" height="100" fill="white"/>
</clipPath>
</defs>
</svg>
