<svg width="100" height="100" viewBox="0 0 100 100" fill="none" xmlns="http://www.w3.org/2000/svg">
<g clip-path="url(#clip0_713_53)">
<path d="M7.29102 42.166H38.541C42.2864 42.166 45.334 45.2136 45.334 48.959V92.709C45.3338 96.4533 42.2863 99.5 38.541 99.5H7.29102C3.54676 99.4998 0.500211 96.4532 0.5 92.709V48.959C0.5 45.2137 3.54667 42.1662 7.29102 42.166ZM61.459 67.166H92.709C96.4533 67.1662 99.5 70.2137 99.5 73.959V92.709C99.4998 96.4532 96.4532 99.4998 92.709 99.5H61.459C57.7137 99.5 54.6662 96.4533 54.666 92.709V73.959C54.666 70.2136 57.7136 67.166 61.459 67.166ZM7.29102 47.416C6.8823 47.4164 6.49009 47.5791 6.20117 47.8682C5.91224 48.1573 5.75008 48.5502 5.75 48.959V92.709C5.75031 93.1176 5.91322 93.5089 6.20215 93.7979C6.45494 94.0506 6.78603 94.2069 7.13867 94.2422L7.29102 94.25H38.541C38.9498 94.2499 39.3427 94.0878 39.6318 93.7988C39.9209 93.5099 40.0836 93.1177 40.084 92.709V48.958C40.0837 48.5492 39.9209 48.1572 39.6318 47.8682C39.3428 47.5791 38.9508 47.4163 38.542 47.416H7.29102ZM61.458 72.416C61.0492 72.4163 60.6572 72.5791 60.3682 72.8682C60.0791 73.1572 59.9163 73.5492 59.916 73.958V92.709L59.9238 92.8613C59.9591 93.2141 60.1152 93.546 60.3682 93.7988C60.6213 94.0518 60.9536 94.2072 61.3066 94.2422L61.459 94.25H92.709C93.1176 94.2497 93.5089 94.0868 93.7979 93.7979C94.0868 93.5089 94.2497 93.1176 94.25 92.709V73.959L94.2422 73.8066C94.2072 73.4536 94.0517 73.1213 93.7988 72.8682C93.5099 72.5791 93.1177 72.4164 92.709 72.416H61.458ZM61.459 0.5H92.709C96.4532 0.500211 99.4998 3.54676 99.5 7.29102V51.041C99.5 54.7863 96.4533 57.8338 92.709 57.834H61.459C57.7136 57.834 54.666 54.7864 54.666 51.041V7.29102C54.6662 3.54667 57.7137 0.5 61.459 0.5ZM61.459 5.75C61.0502 5.75008 60.6573 5.91224 60.3682 6.20117C60.0791 6.49009 59.9164 6.88231 59.916 7.29102V51.042C59.9163 51.4508 60.0791 51.8428 60.3682 52.1318C60.6572 52.4209 61.0492 52.5837 61.458 52.584H92.709C93.1177 52.5836 93.5099 52.4209 93.7988 52.1318C94.0878 51.8427 94.2499 51.4498 94.25 51.041V7.29102L94.2422 7.13867C94.2069 6.78603 94.0506 6.45494 93.7979 6.20215C93.5451 5.94936 93.214 5.79308 92.8613 5.75781L92.709 5.75H61.459ZM7.29102 0.5H38.541C42.2863 0.5 45.3338 3.54667 45.334 7.29102V26.041C45.334 29.7864 42.2864 32.834 38.541 32.834H7.29102C3.54667 32.8338 0.5 29.7863 0.5 26.041V7.29102C0.500212 3.54676 3.54676 0.500212 7.29102 0.5ZM7.29102 5.75C6.88241 5.75031 6.49108 5.91322 6.20215 6.20215C5.91322 6.49108 5.75031 6.88241 5.75 7.29102V26.041C5.75008 26.4498 5.91224 26.8427 6.20117 27.1318C6.45399 27.3848 6.78589 27.5409 7.13867 27.5762L7.29102 27.584H38.542C38.9508 27.5837 39.3428 27.4209 39.6318 27.1318C39.9209 26.8428 40.0837 26.4508 40.084 26.042V7.29102L40.0762 7.13867C40.0409 6.78589 39.8848 6.45399 39.6318 6.20117C39.3427 5.91224 38.9498 5.75008 38.541 5.75H7.29102Z" fill="white" stroke="white"/>
</g>
<defs>
<clipPath id="clip0_713_53">
<rect width="100" height="100" fill="white"/>
</clipPath>
</defs>
</svg>
