<svg width="100" height="100" viewBox="0 0 100 100" fill="none" xmlns="http://www.w3.org/2000/svg">
<path d="M23.4375 100H76.5625C79.0489 100 81.4335 99.0123 83.1916 97.2541C84.9498 95.496 85.9375 93.1114 85.9375 90.625V15.625C85.9375 13.1386 84.9498 10.754 83.1916 8.99587C81.4335 7.23772 79.0489 6.25 76.5625 6.25H69.7656C69.12 4.4239 67.9246 2.84259 66.3438 1.72343C64.763 0.604277 62.8744 0.00221308 60.9375 0L39.0625 0C37.1256 0.00221308 35.237 0.604277 33.6562 1.72343C32.0754 2.84259 30.88 4.4239 30.2344 6.25H23.4375C20.9511 6.25 18.5665 7.23772 16.8084 8.99587C15.0502 10.754 14.0625 13.1386 14.0625 15.625V90.625C14.0625 93.1114 15.0502 95.496 16.8084 97.2541C18.5665 99.0123 20.9511 100 23.4375 100ZM39.0625 6.25H60.9375C61.7663 6.25 62.5612 6.57924 63.1472 7.16529C63.7333 7.75134 64.0625 8.5462 64.0625 9.375C64.0625 10.2038 63.7333 10.9987 63.1472 11.5847C62.5612 12.1708 61.7663 12.5 60.9375 12.5H39.0625C38.2337 12.5 37.4388 12.1708 36.8528 11.5847C36.2667 10.9987 35.9375 10.2038 35.9375 9.375C35.9375 8.5462 36.2667 7.75134 36.8528 7.16529C37.4388 6.57924 38.2337 6.25 39.0625 6.25ZM20.3125 15.625C20.3125 14.7962 20.6417 14.0013 21.2278 13.4153C21.8138 12.8292 22.6087 12.5 23.4375 12.5H30.2344C30.88 14.3261 32.0754 15.9074 33.6562 17.0266C35.237 18.1457 37.1256 18.7478 39.0625 18.75H60.9375C62.8744 18.7478 64.763 18.1457 66.3438 17.0266C67.9246 15.9074 69.12 14.3261 69.7656 12.5H76.5625C77.3913 12.5 78.1862 12.8292 78.7722 13.4153C79.3583 14.0013 79.6875 14.7962 79.6875 15.625V90.625C79.6875 91.4538 79.3583 92.2487 78.7722 92.8347C78.1862 93.4208 77.3913 93.75 76.5625 93.75H23.4375C22.6087 93.75 21.8138 93.4208 21.2278 92.8347C20.6417 92.2487 20.3125 91.4538 20.3125 90.625V15.625Z" fill="white"/>
<path d="M42.1874 70.8907C42.4873 71.2098 42.8509 71.4624 43.2547 71.632C43.6584 71.8015 44.0933 71.8844 44.5312 71.8751H44.6874C45.1419 71.8513 45.5858 71.7285 45.9879 71.5153C46.3901 71.3021 46.7408 71.0036 47.0155 70.6407L72.0155 37.8282C72.4742 37.1668 72.66 36.3538 72.5342 35.5588C72.4083 34.7638 71.9806 34.048 71.3401 33.5606C70.6995 33.0731 69.8956 32.8516 69.0958 32.9422C68.296 33.0328 67.562 33.4286 67.0468 34.0469L44.2812 63.9219L35.0936 54.1094C34.8125 53.8099 34.4752 53.5686 34.1008 53.3994C33.7265 53.2302 33.3224 53.1364 32.9118 53.1233C32.5012 53.1103 32.0921 53.1782 31.7077 53.3233C31.3234 53.4683 30.9714 53.6877 30.6718 53.9688C30.3722 54.2499 30.1309 54.5873 29.9617 54.9616C29.7925 55.336 29.6987 55.74 29.6857 56.1506C29.6726 56.5612 29.7405 56.9704 29.8856 57.3547C30.0307 57.7391 30.25 58.0911 30.5312 58.3907L42.1874 70.8907Z" fill="white"/>
</svg>
